<svg width="14.431641" height="14.431641" viewBox="0 0 14.4316 14.4316" fill="none" xmlns="http://www.w3.org/2000/svg" xmlns:xlink="http://www.w3.org/1999/xlink">
	<desc>
			Created with Pixso.
	</desc>
	<defs/>
	<path id="Union" d="M9.41211 1.91406L7.70312 0.205566C7.42969 -0.0683594 6.98535 -0.0683594 6.71191 0.205566L5.00293 1.91406L2.60352 1.91406C2.21582 1.91406 1.90234 2.22803 1.90234 2.61523L1.90234 5.01514L0.205078 6.71143C-0.0683594 6.98535 -0.0683594 7.42969 0.205078 7.70361L1.90234 9.3999L1.90234 11.8164C1.90234 12.2036 2.21582 12.5176 2.60352 12.5176L5.01953 12.5176L6.72852 14.2261C7.00195 14.5 7.44629 14.5 7.71973 14.2261L9.42871 12.5176L11.8281 12.5176C12.2158 12.5176 12.5293 12.2036 12.5293 11.8164L12.5293 9.41699L14.2266 7.72021C14.5 7.44629 14.5 7.00195 14.2266 6.72803L12.5293 5.03125L12.5293 2.61523C12.5293 2.22803 12.2158 1.91406 11.8281 1.91406L9.41211 1.91406Z" clip-rule="evenodd" fill="#FCFCFC" fill-opacity="1.000000" fill-rule="evenodd"/>
	<path id="Vector 1 (Stroke)" d="M10.31 4.46C10.64 4.74 10.67 5.23 10.39 5.56L6.61 9.96C6.52 10.07 6.36 10.07 6.26 9.98L4.07 7.78C3.76 7.47 3.76 6.98 4.07 6.68C4.37 6.37 4.87 6.37 5.17 6.68L6.18 7.68C6.27 7.78 6.43 7.77 6.52 7.67L9.21 4.54C9.49 4.21 9.98 4.18 10.31 4.46Z" fill="#0016FF" fill-opacity="1.000000" fill-rule="evenodd"/>
</svg>
