<svg width="12" height="16" viewBox="0 0 12 16" fill="none" xmlns="http://www.w3.org/2000/svg">
<path fill-rule="evenodd" clip-rule="evenodd" d="M5.37417 0.353316C5.72311 0.0155696 6.27708 0.0155696 6.62603 0.353316L11.126 4.70887C11.4832 5.05456 11.4925 5.62434 11.1468 5.98149C10.8011 6.33865 10.2313 6.34795 9.87417 6.00225L6.0001 2.25254L2.12603 6.00225C1.76887 6.34795 1.1991 6.33865 0.853408 5.98149C0.507715 5.62434 0.517009 5.05456 0.874166 4.70887L5.37417 0.353316ZM0.853408 10.0185C1.1991 9.66136 1.76887 9.65207 2.12603 9.99776L6.0001 13.7475L9.87417 9.99776C10.2313 9.65207 10.8011 9.66136 11.1468 10.0185C11.4925 10.3757 11.4832 10.9454 11.126 11.2911L6.62603 15.6467C6.27708 15.9844 5.72311 15.9844 5.37417 15.6467L0.874166 11.2911C0.517009 10.9454 0.507715 10.3757 0.853408 10.0185Z" fill="#A2ACB0"/>
</svg>
