<svg width="18" height="16" viewBox="0 0 18 16" fill="none" xmlns="http://www.w3.org/2000/svg">
<path d="M9 1.5495C8.21349 0.848854 7.14718 0.287567 5.97653 0.083063C4.58328 -0.160328 3.04261 0.104907 1.70404 1.22922C0.812019 1.97845 0.254001 3.15719 0.0690915 4.43095C-0.117377 5.71544 0.0642054 7.16053 0.728553 8.49972C1.20918 9.46857 2.35341 10.6874 3.5424 11.8093C4.7575 12.9558 6.11042 14.0836 7.10051 14.8808C8.20127 15.767 9.79873 15.767 10.8995 14.8808C11.8896 14.0836 13.2425 12.9558 14.4576 11.8093C15.6466 10.6874 16.7908 9.46858 17.2714 8.49973C17.9358 7.16054 18.1174 5.71545 17.9309 4.43096C17.746 3.1572 17.188 1.97847 16.296 1.22923C14.9574 0.104919 13.4167 -0.160319 12.0235 0.0830688C10.8528 0.28757 9.78652 0.848855 9 1.5495Z" fill="#007AFF"/>
</svg>
