<svg width="47" height="47" viewBox="0 0 47 47" fill="none" xmlns="http://www.w3.org/2000/svg">
<path fill-rule="evenodd" clip-rule="evenodd" d="M37.3097 5.95689C38.3159 5.95689 40.3284 6.56063 40.3284 8.97561V15.9774L45.2794 20.9284C45.9909 21.6399 46.9871 23.4899 45.2794 25.1975L40.3284 30.1486V37.1504C40.3284 38.1566 39.7246 40.1691 37.3097 40.1691H30.3079L25.3568 45.1201C24.6453 45.8316 22.7954 46.8278 21.0877 45.1201L16.1367 40.1691H9.13491C8.12867 40.1691 6.11619 39.5653 6.11619 37.1504V30.1486L1.16517 25.1975C0.453651 24.486 -0.542477 22.6361 1.16517 20.9284L6.11619 15.9774V8.97561C6.11619 7.96937 6.71993 5.95689 9.13491 5.95689H16.1367L21.0877 1.00587C21.7993 0.294349 23.6492 -0.701779 25.3568 1.00587L30.3079 5.95689H37.3097ZM33.0141 14.6145C34.0678 15.52 34.188 17.1082 33.2825 18.162L21.2536 32.1598C20.8719 32.604 20.1931 32.6296 19.7789 32.2155L12.8904 25.3268C11.908 24.3444 11.908 22.7516 12.8904 21.7692C13.8728 20.7868 15.4656 20.7868 16.448 21.7693L19.4997 24.821C19.9138 25.2351 20.5927 25.2094 20.9744 24.7653L29.4666 14.8829C30.3721 13.8292 31.9604 13.709 33.0141 14.6145Z" fill="#F5A63C"/>
<path d="M33.2825 18.162C34.188 17.1082 34.0678 15.52 33.0141 14.6145C31.9604 13.709 30.3721 13.8292 29.4666 14.8829L20.9744 24.7653C20.5927 25.2094 19.9138 25.2351 19.4997 24.821L16.448 21.7693C15.4656 20.7868 13.8728 20.7868 12.8904 21.7692C11.908 22.7516 11.908 24.3444 12.8904 25.3268L19.7789 32.2155C20.1931 32.6296 20.8719 32.604 21.2536 32.1598L33.2825 18.162Z" fill="white"/>
</svg>
